# xmcd
#
# Track frame offsets:
#	150
#	37435
#	77192
#	121755
#	163270
#
# Disc length: 2528 seconds
#
# Revision: 1
# Processed by: cddbd v1.5.2PL0 Copyright (c) Steve Scherf et al.
# Submitted via: audiograbber 1.83.01
#
DISCID=4009de05
DTITLE=Grateful Dead - 82-03-14 Recreation Hall, Uni of California, Davis CA
DYEAR=1900
DGENRE=
TTITLE0=Space
TTITLE1=Not Fade Away
TTITLE2=Wharf Rat
TTITLE3=Sugar Magnolia
TTITLE4=US Blues
EXTD=
EXTT0=
EXTT1=
EXTT2=
EXTT3=
EXTT4=
PLAYORDER=
